<svg xmlns="http://www.w3.org/2000/svg" width="612.001" height="528.425" viewBox="0 131.787 612.001 528.425"><path d="M305.931 298.658c46.029 0 83.436 37.406 83.436 83.436l-.417 4.589-87.607-87.607 4.588-.418zm0-55.623c76.761 0 139.06 62.299 139.06 139.06 0 17.938-3.614 35.043-9.872 50.757l81.35 81.35c41.995-35.043 75.092-80.376 95.533-132.106-48.254-122.095-166.872-208.59-306.07-208.59-38.937 0-76.204 6.953-110.83 19.468l60.073 59.935c15.713-6.119 32.817-9.874 50.756-9.874zM63.271 131.787l492.968 493.104-35.46 35.32-81.072-81.21-11.82-11.821c-37.686 15.158-78.847 23.502-121.956 23.502-139.06 0-257.816-86.495-305.931-208.589 21.693-55.206 57.988-102.903 103.877-138.781l-12.655-12.655-63.411-63.411 35.46-35.459zm103.6 250.307c0 76.761 62.299 139.06 139.06 139.06 21.973 0 42.553-5.562 61.048-14.74l-42.97-42.97c-5.84 1.252-11.82 2.086-18.078 2.086-46.029 0-83.436-37.406-83.436-83.436 0-6.258.834-12.236 2.086-18.216l-42.969-42.969c-9.178 18.633-14.741 39.214-14.741 61.185z" fill="currentColor"/></svg>