<svg xmlns="http://www.w3.org/2000/svg" width="537.891" height="612" viewBox="37.055 90 537.891 612"><path d="M306 90c-88.978 0-161.367 72.389-161.367 161.367S217.022 412.734 306 412.734s161.367-72.389 161.367-161.367S394.978 90 306 90zm200.771 428.155c-44.179-44.858-102.745-69.562-164.912-69.562H270.14c-62.166 0-120.734 24.703-164.913 69.562-43.962 44.638-68.173 103.56-68.173 165.915 0 9.902 8.028 17.93 17.93 17.93h502.031c9.902 0 17.93-8.027 17.93-17.93 0-62.355-24.211-121.277-68.174-165.915z"/></svg>