<svg xmlns="http://www.w3.org/2000/svg" width="511.999" height="128" viewBox="0.001 192 511.999 128"><path d="M18.746 210.745c24.993-24.993 65.516-24.993 90.509 0 24.994 24.994 24.994 65.516 0 90.51-24.994 24.993-65.516 24.993-90.509 0-24.994-24.993-24.994-65.515 0-90.51m192.001 0c24.994-24.993 65.516-24.993 90.51 0 24.992 24.994 24.992 65.516 0 90.51-24.994 24.993-65.517 24.993-90.51 0-24.994-24.993-24.994-65.515 0-90.51m191.998 0c24.994-24.993 65.517-24.993 90.51 0 24.994 24.994 24.994 65.516 0 90.51-24.993 24.993-65.516 24.993-90.51 0-24.993-24.993-24.993-65.515 0-90.51" fill="currentColor"/></svg>