<svg xmlns="http://www.w3.org/2000/svg" width="612.938" height="571.908" viewBox="313.257 -9.731 612.938 571.908"><path d="M681.395 284.932L505.639 109.176 648.265-4.918c6.12-4.937 14.484-5.834 21.583-2.448 7.059 3.427 11.547 10.567 11.547 18.401v273.897zm122.399-8.698c0 36.15-11.54 70.299-32.865 98.232l29.054 29.054c28.923-35.723 44.612-80.161 44.612-127.286 0-54.877-21.257-106.121-59.936-144.269-8.038-7.915-20.931-7.793-28.846.163-7.915 8.038-7.834 20.931.163 28.887 30.845 30.437 47.818 71.359 47.818 115.219zm81.601 0c0 57.831-19.957 112.436-56.609 156.089l28.971 28.97c44.31-51.402 68.438-116.294 68.438-185.059 0-76.418-29.784-148.063-83.967-201.756-8.037-7.956-20.93-7.875-28.886.123-7.915 7.997-7.834 20.93.122 28.846 46.39 45.981 71.931 107.344 71.931 172.787zM350.55-3.34c-8.522-8.522-22.378-8.522-30.901 0-8.522 8.522-8.522 22.378 0 30.901L437.15 145.106l8.728 8.728h-90.884c-22.48 0-40.8 18.319-40.8 40.8v163.2c0 22.521 18.319 40.8 40.8 40.8h94.819l198.41 158.753a20.601 20.601 0 0 0 12.771 4.447c3.02 0 6.038-.693 8.854-2.04a20.358 20.358 0 0 0 11.547-18.359V389.352l166.4 166.401c4.283 4.283 9.879 6.424 15.473 6.424s11.189-2.141 15.473-6.381c8.521-8.566 8.521-22.377 0-30.945L350.55-3.34z"/></svg>