<svg xmlns="http://www.w3.org/2000/svg" viewBox="0 0 512 512"><path d="M21.333 149.327H64c18.773 0 37.227 4.928 53.333 14.272a21.178 21.178 0 0 0 10.688 2.88c7.36 0 14.528-3.819 18.475-10.624 5.931-10.197 2.432-23.253-7.744-29.163C116.117 113.594 90.283 106.66 64 106.66H21.333C9.536 106.66 0 116.218 0 127.994s9.536 21.333 21.333 21.333zM320 149.327h42.667v64a21.36 21.36 0 0 0 12.075 19.221 21.572 21.572 0 0 0 9.259 2.112c4.757 0 9.472-1.6 13.333-4.672L504 144.655a21.347 21.347 0 0 0 0-33.322L397.333 25.999c-6.421-5.12-15.232-6.101-22.592-2.56s-12.075 11.029-12.075 19.221v64H320c-82.325 0-149.333 66.987-149.333 149.333 0 58.816-47.851 106.667-106.667 106.667H21.333C9.536 362.66 0 372.218 0 383.994s9.536 21.333 21.333 21.333H64c82.325 0 149.333-66.987 149.333-149.333 0-58.816 47.851-106.667 106.667-106.667zM504 367.336l-106.667-85.333c-6.421-5.141-15.232-6.123-22.592-2.581a21.392 21.392 0 0 0-12.075 19.243v64H320c-21.077 0-41.472-6.144-58.965-17.771-9.856-6.485-23.061-3.861-29.568 5.973-6.528 9.813-3.861 23.061 5.952 29.568 24.512 16.277 53.056 24.896 82.581 24.896h42.667v64a21.36 21.36 0 0 0 12.075 19.221 21.572 21.572 0 0 0 9.259 2.112c4.757 0 9.472-1.6 13.333-4.672L504 400.659a21.378 21.378 0 0 0 8-16.661c0-6.486-2.944-12.63-8-16.662z"/></svg>