<svg xmlns="http://www.w3.org/2000/svg" width="328.655" height="53.705" viewBox="0 0 328.655 53.705"><switch><g><path fill="#FFF" d="M29.4.006c1.92-.04 3.669.13 5.25.51 1.58.381 2.93 1.02 4.05 1.92 1.119.9 1.98 2.07 2.58 3.51s.9 3.201.9 5.28c0 1.44-.24 2.82-.72 4.14a11.174 11.174 0 0 1-2.04 3.51 11.692 11.692 0 0 1-3.12 2.551 11.01 11.01 0 0 1-3.96 1.32v.119c1.76.561 2.94 1.53 3.54 2.91.6 1.381.9 2.932.9 4.65 0 .96-.051 2.11-.15 3.449a53.125 53.125 0 0 0-.15 3.99c0 .961.04 1.871.12 2.73.08.861.24 1.611.48 2.25H27.9c-.12-.52-.221-1.01-.3-1.471a8.104 8.104 0 0 1-.12-1.409c0-1.44.08-2.89.24-4.351.159-1.459.24-2.91.24-4.35 0-1.039-.15-1.891-.45-2.55-.3-.66-.72-1.19-1.26-1.591-.54-.398-1.19-.668-1.95-.809a13.865 13.865 0 0 0-2.52-.211H12.9l-3.54 16.74H0L8.94.003H29.4zm-6.36 19.38c1.28 0 2.5-.13 3.66-.39 1.16-.26 2.19-.66 3.09-1.2s1.62-1.239 2.16-2.101c.54-.859.81-1.89.81-3.09 0-1.16-.19-2.089-.57-2.79-.38-.7-.891-1.23-1.53-1.59-.64-.36-1.38-.6-2.22-.72-.84-.12-1.72-.18-2.64-.18h-8.94l-2.52 12.06h8.7zM52.259 29.945v1.259c0 1.801.56 3.262 1.68 4.381 1.12 1.12 2.84 1.68 5.16 1.68.84 0 1.59-.129 2.25-.391a6.671 6.671 0 0 0 1.74-.989c.5-.399.939-.86 1.32-1.38.379-.52.729-1.02 1.05-1.5h8.52c-.681 1.76-1.48 3.3-2.4 4.619a13.408 13.408 0 0 1-3.3 3.33c-1.28.9-2.77 1.57-4.47 2.011-1.701.439-3.67.659-5.91.659-2.08 0-3.97-.279-5.67-.84-1.701-.559-3.15-1.41-4.35-2.549-1.2-1.141-2.13-2.551-2.79-4.23-.66-1.68-.99-3.64-.99-5.881 0-2.479.399-4.869 1.2-7.17.8-2.299 1.93-4.339 3.39-6.119 1.46-1.78 3.25-3.2 5.37-4.26 2.12-1.06 4.5-1.59 7.14-1.59 2.16 0 4.129.28 5.91.84 1.779.561 3.3 1.41 4.56 2.55 1.26 1.14 2.24 2.56 2.94 4.26.7 1.7 1.05 3.671 1.05 5.91 0 1.521-.161 3.141-.48 4.86h-22.86c-.04.201-.06.381-.06.54zm14.97-8.309a6.011 6.011 0 0 0-.81-2.13c-.4-.64-.98-1.149-1.74-1.53-.76-.38-1.761-.569-3-.569-1.2 0-2.26.18-3.18.539-.92.36-1.72.84-2.4 1.44a8.274 8.274 0 0 0-1.71 2.101c-.46.8-.851 1.641-1.17 2.52h14.22c0-.801-.07-1.591-.21-2.371zM100.048 18.605c-.94-.799-2.37-1.199-4.29-1.199-1.6 0-2.96.43-4.08 1.289-1.121.861-2.021 1.95-2.7 3.271a15.955 15.955 0 0 0-1.47 4.29c-.3 1.54-.45 2.97-.45 4.29 0 .921.099 1.79.3 2.61.2.82.54 1.529 1.02 2.129a5.217 5.217 0 0 0 1.83 1.44c.74.36 1.65.54 2.73.54.96 0 1.81-.159 2.55-.48a7.21 7.21 0 0 0 1.98-1.26 6.767 6.767 0 0 0 1.44-1.83c.379-.699.69-1.43.93-2.189h8.52c-1.281 3.881-3.25 6.869-5.91 8.97s-6.03 3.149-10.11 3.149c-4.36 0-7.75-1.068-10.17-3.209-2.42-2.14-3.63-5.49-3.63-10.051 0-2.64.39-5.129 1.17-7.47.78-2.34 1.92-4.399 3.42-6.18 1.5-1.779 3.33-3.18 5.49-4.2s4.64-1.53 7.44-1.53c1.879 0 3.66.22 5.34.66 1.68.441 3.15 1.121 4.41 2.04 1.26.921 2.259 2.121 3 3.6.74 1.48 1.129 3.24 1.17 5.281h-8.52c0-1.839-.47-3.16-1.41-3.961zM113.129 22.836c.819-2.34 2-4.39 3.54-6.15 1.539-1.76 3.409-3.15 5.61-4.17 2.199-1.02 4.68-1.53 7.439-1.53 2.12 0 4.069.27 5.85.81s3.31 1.35 4.591 2.43c1.279 1.08 2.27 2.44 2.97 4.08.699 1.641 1.05 3.581 1.05 5.819 0 2.721-.41 5.271-1.229 7.65-.82 2.381-2.011 4.451-3.57 6.211-1.561 1.76-3.45 3.141-5.67 4.139-2.22 1-4.75 1.5-7.59 1.5-4.32 0-7.771-1.109-10.35-3.329-2.58-2.22-3.871-5.55-3.871-9.99 0-2.64.41-5.13 1.23-7.47zm7.68 10.109c.26.84.65 1.581 1.17 2.221.52.641 1.16 1.15 1.92 1.529.76.381 1.64.57 2.641.57 1.6 0 2.97-.43 4.109-1.29 1.141-.859 2.08-1.939 2.82-3.239s1.29-2.71 1.65-4.23c.359-1.52.54-2.939.54-4.26 0-2.08-.471-3.74-1.41-4.98-.94-1.239-2.55-1.859-4.83-1.859-1.561 0-2.91.43-4.05 1.289a10.289 10.289 0 0 0-2.79 3.211 16.07 16.07 0 0 0-1.62 4.17c-.36 1.5-.54 2.91-.54 4.229 0 .921.129 1.799.39 2.639zM160.738 11.826l-1.261 5.581.12.119c.96-2.16 2.409-3.789 4.351-4.89 1.939-1.1 4.05-1.65 6.33-1.65.879 0 1.76.06 2.64.18l-1.74 8.28-1.8-.359c-.6-.12-1.2-.18-1.8-.18-1.641 0-3.03.279-4.17.84a8.477 8.477 0 0 0-2.88 2.279 11.669 11.669 0 0 0-1.86 3.271 26.02 26.02 0 0 0-1.11 3.81l-2.88 13.74h-8.46l6.42-31.02h8.1zM190.857 38.886c-.96 1.681-2.271 2.89-3.93 3.63-1.66.74-3.45 1.109-5.37 1.109-3.76 0-6.67-1.089-8.729-3.27-2.062-2.18-3.091-5.149-3.091-8.91 0-2.559.34-5.059 1.021-7.5.68-2.439 1.72-4.619 3.12-6.539a16.18 16.18 0 0 1 5.279-4.65c2.12-1.18 4.62-1.77 7.5-1.77 1.801 0 3.53.4 5.19 1.2 1.659.801 2.829 2.061 3.51 3.78h.12l3.42-15.96h8.521l-9.061 42.84h-8.22l.84-3.84-.12-.12zm-7.469-20.22c-1.181.84-2.15 1.9-2.91 3.18a14.907 14.907 0 0 0-1.68 4.2c-.36 1.521-.54 2.96-.54 4.319 0 .921.129 1.801.39 2.641.26.84.64 1.57 1.141 2.189a5.571 5.571 0 0 0 1.89 1.5c.76.381 1.64.57 2.64.57 1.6 0 2.979-.43 4.141-1.29 1.159-.859 2.13-1.95 2.91-3.271a15.852 15.852 0 0 0 1.739-4.289c.38-1.539.57-2.971.57-4.291 0-2.039-.501-3.668-1.5-4.889-1-1.221-2.541-1.83-4.62-1.83-1.602.001-2.992.421-4.171 1.261z"/><path fill="#E94E1B" d="M224.917.006l-9.12 42.84h-8.46l9.061-42.84h8.519zM225.367 22.836c.819-2.34 2-4.39 3.54-6.15 1.539-1.76 3.409-3.15 5.61-4.17 2.199-1.02 4.68-1.53 7.439-1.53 2.12 0 4.069.27 5.85.81s3.31 1.35 4.591 2.43c1.279 1.08 2.27 2.44 2.97 4.08.699 1.641 1.05 3.581 1.05 5.819 0 2.721-.41 5.271-1.229 7.65-.82 2.381-2.011 4.451-3.57 6.211-1.561 1.76-3.45 3.141-5.67 4.139-2.22 1-4.75 1.5-7.59 1.5-4.32 0-7.771-1.109-10.351-3.329s-3.87-5.55-3.87-9.99c0-2.64.41-5.13 1.23-7.47zm7.68 10.109c.26.84.65 1.581 1.17 2.221.52.641 1.16 1.15 1.92 1.529.76.381 1.64.57 2.641.57 1.6 0 2.97-.43 4.109-1.29 1.141-.859 2.08-1.939 2.82-3.239s1.29-2.71 1.65-4.23c.359-1.52.54-2.939.54-4.26 0-2.08-.471-3.74-1.41-4.98-.94-1.239-2.55-1.859-4.83-1.859-1.561 0-2.91.43-4.05 1.289a10.289 10.289 0 0 0-2.79 3.211 16.07 16.07 0 0 0-1.62 4.17c-.36 1.5-.54 2.91-.54 4.229 0 .921.129 1.799.39 2.639zM260.946 22.836c.819-2.34 2-4.39 3.54-6.15 1.539-1.76 3.409-3.15 5.61-4.17 2.199-1.02 4.68-1.53 7.439-1.53 2.12 0 4.069.27 5.85.81s3.31 1.35 4.591 2.43c1.279 1.08 2.27 2.44 2.97 4.08.699 1.641 1.05 3.581 1.05 5.819 0 2.721-.41 5.271-1.229 7.65-.82 2.381-2.011 4.451-3.57 6.211-1.561 1.76-3.45 3.141-5.67 4.139-2.22 1-4.75 1.5-7.59 1.5-4.32 0-7.771-1.109-10.351-3.329s-3.87-5.55-3.87-9.99c0-2.64.41-5.13 1.23-7.47zm7.68 10.109c.26.84.65 1.581 1.17 2.221.52.641 1.16 1.15 1.92 1.529.76.381 1.64.57 2.641.57 1.6 0 2.97-.43 4.109-1.29 1.141-.859 2.08-1.939 2.82-3.239s1.29-2.71 1.65-4.23c.359-1.52.54-2.939.54-4.26 0-2.08-.471-3.74-1.41-4.98-.94-1.239-2.55-1.859-4.83-1.859-1.561 0-2.91.43-4.05 1.289a10.289 10.289 0 0 0-2.79 3.211 16.07 16.07 0 0 0-1.62 4.17c-.36 1.5-.54 2.91-.54 4.229 0 .921.129 1.799.39 2.639zM308.315 11.826l-.84 3.84.12.119c.96-1.68 2.27-2.899 3.93-3.66 1.659-.759 3.45-1.14 5.37-1.14 3.759 0 6.66 1.101 8.7 3.3 2.04 2.201 3.06 5.181 3.06 8.94 0 2.561-.34 5.061-1.02 7.5-.681 2.44-1.721 4.62-3.12 6.54a15.974 15.974 0 0 1-5.25 4.62c-2.101 1.159-4.59 1.739-7.471 1.739-.88 0-1.77-.1-2.67-.299-.899-.201-1.739-.5-2.52-.9-.78-.399-1.48-.91-2.101-1.53s-1.09-1.35-1.409-2.19h-.181l-3.239 15h-8.461l8.881-41.879h8.221zm1.621 6.869c-1.161.861-2.13 1.95-2.91 3.271a15.842 15.842 0 0 0-1.74 4.29c-.381 1.54-.57 2.97-.57 4.29 0 2.04.5 3.67 1.5 4.89 1 1.221 2.54 1.83 4.62 1.83 1.64 0 3.04-.42 4.2-1.26s2.12-1.899 2.88-3.18 1.32-2.68 1.681-4.201c.359-1.52.54-2.959.54-4.319 0-.919-.131-1.8-.391-2.64-.261-.84-.64-1.57-1.14-2.19a5.64 5.64 0 0 0-1.891-1.5c-.76-.38-1.641-.569-2.64-.569-1.6-.001-2.98.429-4.139 1.288z"/></g></switch></svg>