<svg xmlns="http://www.w3.org/2000/svg" viewBox="0 0 511.991 511.991"><path d="M465.45 279.263c-12.87 0-23.273 10.426-23.273 23.273 0 38.493-31.325 69.818-69.818 69.818H186.177v-69.818c0-8.937-5.143-17.105-13.172-20.969-8.122-3.863-17.641-2.793-24.646 2.793L31.995 377.451a23.29 23.29 0 0 0 0 36.352l116.364 93.091a23.368 23.368 0 0 0 14.545 5.097c3.421 0 6.889-.768 10.1-2.304 8.029-3.863 13.172-12.032 13.172-20.969V418.9h186.182c64.163 0 116.364-52.201 116.364-116.364.001-12.847-10.402-23.273-23.272-23.273zM46.541 232.718c12.87 0 23.273-10.426 23.273-23.273 0-38.493 31.325-69.818 69.818-69.818h186.182v69.818c0 8.937 5.143 17.105 13.172 20.969 3.235 1.536 6.679 2.304 10.1 2.304a23.36 23.36 0 0 0 14.545-5.097l116.364-93.091a23.29 23.29 0 0 0 0-36.352L363.632 5.087c-6.982-5.585-16.617-6.656-24.646-2.793s-13.172 12.032-13.172 20.969v69.818H139.632c-64.163 0-116.364 52.201-116.364 116.364 0 12.847 10.403 23.273 23.273 23.273z"/></svg>