<svg xmlns="http://www.w3.org/2000/svg" width="510.595" height="612" viewBox="8.203 90 510.595 612"><path d="M259.639 384.803c40.5 0 75.566-14.526 104.225-43.186 28.65-28.655 43.181-63.716 43.181-104.221 0-40.491-14.525-75.557-43.185-104.221C335.2 104.525 300.135 90 259.639 90c-40.505 0-75.566 14.526-104.221 43.181s-43.186 63.72-43.186 104.216c0 40.505 14.531 75.571 43.186 104.226 28.664 28.649 63.73 43.18 104.221 43.18zm-78.858-226.264c21.987-21.987 47.78-32.675 78.858-32.675 31.073 0 56.871 10.688 78.863 32.675 21.987 21.992 32.68 47.789 32.68 78.858 0 31.078-10.692 56.871-32.68 78.862-21.992 21.992-47.79 32.68-78.863 32.68-31.069 0-56.862-10.692-78.858-32.68-21.992-21.987-32.685-47.784-32.685-78.862.001-31.069 10.693-56.867 32.685-78.858zm336.78 402.059c-.826-11.925-2.498-24.934-4.959-38.67-2.484-13.84-5.683-26.923-9.511-38.881-3.96-12.359-9.334-24.564-15.987-36.261-6.896-12.14-15.002-22.711-24.098-31.409-9.512-9.101-21.156-16.417-34.622-21.754-13.42-5.309-28.291-7.998-44.199-7.998-6.247 0-12.289 2.563-23.957 10.16a3270.212 3270.212 0 0 1-24.957 16.09c-8.017 5.107-18.878 9.894-32.292 14.227-13.088 4.235-26.376 6.383-39.497 6.383-13.111 0-26.4-2.147-39.497-6.383-13.4-4.328-24.266-9.114-32.269-14.223a3467.367 3467.367 0 0 1-24.98-16.099c-11.659-7.597-17.701-10.16-23.948-10.16-15.913 0-30.779 2.694-44.194 8.008-13.457 5.328-25.106 12.644-34.626 21.753-9.096 8.704-17.201 19.271-24.093 31.405-6.644 11.696-12.023 23.896-15.982 36.266-3.824 11.958-7.022 25.036-9.506 38.876-2.465 13.718-4.132 26.73-4.959 38.684-.812 11.688-1.223 23.851-1.223 36.14 0 31.946 10.155 57.81 30.182 76.883C58.166 692.456 84.332 702 116.162 702h294.682c31.82 0 57.986-9.544 77.77-28.365 20.031-19.06 30.187-44.932 30.187-76.888-.008-12.332-.424-24.495-1.24-36.149zm-53.677 87.052c-13.069 12.438-30.42 18.485-53.047 18.485H116.16c-22.632 0-39.982-6.047-53.047-18.481-12.817-12.2-19.045-28.855-19.045-50.903 0-11.468.378-22.79 1.134-33.66.738-10.664 2.246-22.379 4.482-34.827 2.208-12.294 5.02-23.832 8.363-34.276 3.208-10.016 7.583-19.933 13.008-29.486 5.178-9.104 11.136-16.916 17.71-23.21 6.149-5.889 13.9-10.707 23.033-14.321 8.447-3.343 17.939-5.173 28.244-5.448 1.256.667 3.493 1.942 7.116 4.305a3314.214 3314.214 0 0 0 25.265 16.286c10.589 6.752 24.233 12.85 40.533 18.111 16.664 5.389 33.66 8.125 50.53 8.125s33.87-2.736 50.525-8.12c16.314-5.271 29.953-11.364 40.557-18.126a3276.135 3276.135 0 0 0 25.246-16.276c3.623-2.358 5.86-3.638 7.116-4.305 10.31.275 19.802 2.105 28.253 5.448 9.128 3.614 16.879 8.438 23.028 14.321 6.574 6.289 12.532 14.101 17.71 23.215 5.431 9.549 9.811 19.471 13.014 29.477 3.348 10.459 6.163 21.992 8.367 34.276 2.231 12.472 3.744 24.191 4.482 34.837v.01c.761 10.827 1.144 22.146 1.148 33.646-.003 22.051-6.232 38.701-19.048 50.897z"/></svg>