<svg xmlns="http://www.w3.org/2000/svg" width="510.595" height="612.005" viewBox="8.203 89.999 510.595 612.005"><path d="M259.639 384.802c40.5 0 75.571-14.526 104.225-43.186 28.655-28.655 43.181-63.716 43.181-104.221 0-40.491-14.525-75.557-43.185-104.221-28.66-28.65-63.726-43.176-104.221-43.176-40.505 0-75.566 14.525-104.221 43.181-28.655 28.654-43.186 63.72-43.186 104.216 0 40.505 14.531 75.571 43.19 104.226 28.66 28.65 63.726 43.181 104.217 43.181zm257.922 175.795c-.826-11.925-2.498-24.933-4.959-38.67-2.484-13.84-5.683-26.923-9.511-38.88-3.955-12.359-9.334-24.565-15.983-36.262-6.9-12.14-15.006-22.711-24.102-31.409-9.512-9.101-21.156-16.417-34.622-21.754-13.42-5.309-28.291-7.998-44.199-7.998-6.247 0-12.289 2.563-23.957 10.16a3239.795 3239.795 0 0 1-24.957 16.09c-8.017 5.108-18.878 9.894-32.292 14.227-13.088 4.235-26.376 6.383-39.492 6.383s-26.399-2.147-39.501-6.383c-13.4-4.328-24.261-9.114-32.269-14.222a3430.755 3430.755 0 0 1-24.98-16.1c-11.654-7.597-17.701-10.16-23.948-10.16-15.913 0-30.779 2.694-44.194 8.008-13.457 5.327-25.106 12.645-34.626 21.754-9.091 8.703-17.201 19.27-24.093 31.404-6.644 11.696-12.023 23.897-15.982 36.266-3.824 11.958-7.022 25.036-9.506 38.876-2.461 13.718-4.132 26.731-4.959 38.685-.812 11.71-1.223 23.864-1.223 36.14 0 31.946 10.155 57.809 30.182 76.883 19.779 18.821 45.95 28.37 77.775 28.37h294.682c31.825 0 57.986-9.544 77.77-28.37 20.031-19.06 30.187-44.927 30.187-76.888-.009-12.332-.425-24.496-1.241-36.15z"/></svg>