<svg xmlns="http://www.w3.org/2000/svg" width="612.001" height="417.272" viewBox="0 187.364 612.001 417.272"><path d="M389.455 396.001c0 46.039-37.415 83.454-83.454 83.454-46.04 0-83.455-37.415-83.455-83.454 0-46.04 37.415-83.455 83.455-83.455 46.038 0 83.454 37.415 83.454 83.455zm222.546 0c-48.126 122.121-166.771 208.636-306 208.636-139.092 0-257.875-86.515-306.001-208.636 48.126-122.123 166.909-208.637 306.001-208.637 139.229 0 257.874 86.514 306 208.637zm-166.909 0c0-76.778-62.312-139.092-139.091-139.092S166.909 319.221 166.909 396c0 76.778 62.313 139.091 139.092 139.091s139.091-62.312 139.091-139.09z" fill="currentColor"/></svg>