<svg xmlns="http://www.w3.org/2000/svg" width="612" height="571.224" viewBox="0 110.388 612 571.224"><path d="M355.653 112.411c-7.099-3.386-15.463-2.489-21.583 2.448L135.619 273.611H40.8c-22.48 0-40.8 18.319-40.8 40.8v163.2c0 22.521 18.319 40.8 40.8 40.8h94.819l198.41 158.753a20.601 20.601 0 0 0 12.771 4.447c3.02 0 6.038-.693 8.854-2.04a20.358 20.358 0 0 0 11.547-18.359v-530.4c-.001-7.834-4.489-14.974-11.548-18.401zm114.812 139.332c-8.038-7.915-20.931-7.793-28.846.163-7.915 8.038-7.834 20.931.163 28.887 30.845 30.437 47.817 71.359 47.817 115.219 0 43.859-16.973 84.782-47.817 115.219-7.997 7.875-8.078 20.809-.163 28.846a20.328 20.328 0 0 0 14.484 6.038 20.326 20.326 0 0 0 14.361-5.916c38.679-38.066 59.936-89.311 59.936-144.187 0-54.877-21.256-106.121-59.935-144.269zm57.568-57.488c-8.037-7.956-20.93-7.875-28.886.123-7.915 7.997-7.834 20.93.122 28.846 46.39 45.981 71.931 107.345 71.931 172.788s-25.541 126.766-71.931 172.747c-7.956 7.956-8.037 20.89-.122 28.887 4.039 3.998 9.262 5.997 14.483 5.997a20.42 20.42 0 0 0 14.402-5.916C582.216 544.074 612 472.43 612 396.012c0-76.419-29.784-148.064-83.967-201.757z"/></svg>