<svg xmlns="http://www.w3.org/2000/svg" viewBox="313.257 -9.731 612.938 571.908"><path d="M669.193-7.707c-7.105-3.389-15.477-2.491-21.601 2.45L448.984 153.622H354.09c-22.499 0-40.833 18.333-40.833 40.832v163.329c0 22.541 18.334 40.833 40.833 40.833h94.895l198.567 158.879a20.62 20.62 0 0 0 12.78 4.45c3.021 0 6.043-.693 8.861-2.042a20.376 20.376 0 0 0 11.555-18.373V10.708c0-7.839-4.492-14.985-11.555-18.415zm114.902 139.442c-8.044-7.921-20.947-7.799-28.868.164-7.922 8.044-7.84 20.947.163 28.91 30.869 30.46 47.855 71.415 47.855 115.31 0 43.895-16.986 84.85-47.855 115.311-8.003 7.882-8.085 20.824-.163 28.868a20.34 20.34 0 0 0 14.494 6.044 20.347 20.347 0 0 0 14.374-5.922c38.708-38.096 59.982-89.381 59.982-144.301 0-54.92-21.274-106.205-59.982-144.384z" fill="currentColor"/></svg>